<?xml version="1.0" standalone="no"?>
<!DOCTYPE svg PUBLIC "-//W3C//DTD SVG 20010904//EN"
 "http://www.w3.org/TR/2001/REC-SVG-20010904/DTD/svg10.dtd">
<svg version="1.0" xmlns="http://www.w3.org/2000/svg"
 width="124.000000pt" height="124.000000pt" viewBox="0 0 124.000000 124.000000"
 preserveAspectRatio="xMidYMid meet">
<metadata>
Created by potrace 1.10, written by Peter Selinger 2001-2011
</metadata>
<g transform="translate(0.000000,124.000000) scale(0.100000,-0.100000)"
fill="#000000" stroke="none">
<path d="M298 873 c-158 -131 -289 -243 -292 -249 -5 -12 50 -94 63 -94 4 0
129 101 277 225 148 124 271 225 274 225 3 0 126 -101 274 -225 148 -124 273
-225 277 -225 13 0 68 82 63 94 -3 6 -43 42 -89 80 l-85 68 -2 167 -3 166 -92
3 -93 3 0 -91 0 -90 -107 90 c-91 77 -111 90 -143 90 -32 0 -64 -24 -322 -237z
m428 126 c117 -93 129 -98 156 -72 14 14 22 40 27 79 l6 59 50 0 50 0 5 -146
c6 -167 6 -169 98 -244 59 -48 83 -93 45 -83 -10 3 -129 98 -266 211 -199 167
-253 207 -277 207 -24 0 -78 -40 -282 -210 -139 -116 -258 -210 -264 -210 -44
0 -2 44 229 236 272 227 294 244 318 244 10 0 57 -32 105 -71z"/>
<path d="M400 732 l-215 -178 -3 -198 c-2 -138 1 -203 9 -212 9 -11 48 -14
170 -14 l159 0 0 148 0 147 100 0 100 0 0 -147 0 -148 159 0 c122 0 161 3 170
14 8 9 11 74 9 212 l-3 198 -215 178 c-118 97 -217 177 -220 177 -3 0 -102
-80 -220 -177z m425 -40 c108 -89 187 -162 190 -175 3 -12 4 -94 3 -182 l-3
-160 -125 0 -125 0 -5 121 c-7 162 -8 164 -140 164 -132 0 -133 -2 -140 -164
l-5 -121 -125 0 -125 0 -3 177 -2 176 52 46 c188 160 335 276 350 273 10 -1
101 -71 203 -155z"/>
</g>
</svg>
