<?xml version="1.0" standalone="no"?>
<!DOCTYPE svg PUBLIC "-//W3C//DTD SVG 20010904//EN"
 "http://www.w3.org/TR/2001/REC-SVG-20010904/DTD/svg10.dtd">
<svg version="1.0" xmlns="http://www.w3.org/2000/svg"
 width="140.000000pt" height="140.000000pt" viewBox="0 0 140.000000 140.000000"
 preserveAspectRatio="xMidYMid meet">
<metadata>
Created by potrace 1.10, written by Peter Selinger 2001-2011
</metadata>
<g transform="translate(0.000000,140.000000) scale(0.100000,-0.100000)"
fill="#000000" stroke="none">
<path d="M130 1076 c0 -123 -3 -231 -6 -240 -3 -9 -1 -16 5 -16 6 0 11 6 11
14 0 8 18 30 40 49 l40 34 0 146 0 147 480 0 480 0 0 -301 0 -300 -116 2 -117
1 -44 -46 -45 -46 111 0 111 0 0 -170 0 -170 51 0 52 0 -5 170 -4 170 48 0 48
0 0 390 0 390 -570 0 -570 0 0 -224z m100 176 c0 -5 -13 -21 -30 -37 l-30 -29
0 30 c0 17 3 34 7 37 9 10 53 9 53 -1z m998 -32 l4 -35 -31 29 c-38 37 -39 48
-3 44 23 -3 27 -8 30 -38z m-2 -646 c-3 -8 -14 -14 -25 -14 -10 0 -31 -14 -46
-31 l-26 -32 -29 34 -28 34 49 5 c36 4 57 13 77 33 26 27 27 27 30 7 2 -12 1
-28 -2 -36z"/>
<path d="M404 1150 c-31 -12 -72 -66 -80 -105 -12 -68 59 -155 128 -155 108 0
174 116 118 208 -31 51 -109 75 -166 52z m117 -59 c47 -48 38 -116 -21 -146
-42 -22 -66 -19 -102 14 -67 59 -24 158 70 160 13 1 36 -12 53 -28z"/>
<path d="M760 1065 l0 -35 145 0 145 0 0 35 0 35 -145 0 -145 0 0 -35z"/>
<path d="M760 935 l0 -35 95 0 95 0 0 35 0 35 -95 0 -95 0 0 -35z"/>
<path d="M221 823 c-28 -26 -31 -39 -56 -191 -24 -151 -25 -165 -10 -188 16
-25 52 -32 85 -14 21 11 40 60 40 101 0 16 5 29 10 29 6 0 10 -61 10 -162 0
-90 3 -193 7 -230 l6 -68 53 0 54 0 0 170 0 170 35 0 35 0 0 -170 0 -170 54 0
54 0 6 73 c3 39 8 133 11 207 3 74 8 168 12 207 l6 73 47 -40 c56 -47 87 -60
116 -50 12 5 54 45 93 89 76 87 86 116 51 151 -32 32 -58 24 -113 -30 l-51
-51 -45 45 c-77 74 -86 76 -295 76 l-186 0 -29 -27z m405 -24 c16 -5 49 -30
76 -55 60 -56 85 -57 142 -4 48 44 66 50 66 21 0 -17 -72 -107 -110 -138 -23
-19 -33 -16 -88 21 -64 45 -80 47 -104 14 -18 -23 -22 -50 -30 -235 -11 -248
-14 -273 -33 -273 -12 0 -15 24 -15 138 0 119 -3 140 -19 162 -27 34 -85 34
-112 0 -16 -22 -19 -43 -19 -157 0 -122 -7 -159 -28 -139 -3 4 -9 85 -13 181
-7 176 -19 230 -49 230 -8 0 -25 -19 -38 -43 -25 -45 -47 -61 -62 -46 -9 9 24
248 41 291 5 13 19 28 31 33 32 12 331 12 364 -1z"/>
</g>
</svg>
