<?xml version="1.0" standalone="no"?>
<!DOCTYPE svg PUBLIC "-//W3C//DTD SVG 20010904//EN"
 "http://www.w3.org/TR/2001/REC-SVG-20010904/DTD/svg10.dtd">
<svg version="1.0" xmlns="http://www.w3.org/2000/svg"
 width="129.000000pt" height="129.000000pt" viewBox="0 0 129.000000 129.000000"
 preserveAspectRatio="xMidYMid meet">
<metadata>
Created by potrace 1.10, written by Peter Selinger 2001-2011
</metadata>
<g transform="translate(0.000000,129.000000) scale(0.100000,-0.100000)"
fill="#000000" stroke="none">
<path d="M578 1280 c-119 -15 -240 -108 -296 -227 -23 -50 -27 -75 -30 -170
-4 -101 -6 -113 -22 -113 -32 0 -50 -12 -65 -41 -12 -23 -15 -86 -15 -344 0
-340 4 -366 52 -378 32 -9 33 -3 9 36 -20 33 -21 46 -21 341 0 337 -6 304 64
359 28 23 29 28 36 133 12 200 87 301 270 364 36 12 70 27 77 32 7 5 14 5 17
-1 4 -5 30 -17 59 -27 132 -43 210 -105 255 -202 20 -45 27 -79 32 -165 6
-106 7 -111 36 -133 70 -56 64 -23 64 -357 0 -286 -1 -304 -21 -341 -23 -43
-22 -48 9 -39 48 12 52 38 52 378 0 258 -3 321 -15 344 -15 29 -33 41 -65 41
-16 0 -18 12 -21 113 -4 103 -7 118 -37 179 -41 84 -129 168 -204 196 -63 23
-142 31 -220 22z"/>
<path d="M600 1160 c-60 -12 -89 -28 -140 -76 -65 -60 -90 -126 -90 -233 0
-68 3 -80 23 -99 23 -21 31 -22 253 -22 228 0 231 0 252 23 19 20 22 35 22 98
0 97 -21 157 -76 218 -66 74 -160 109 -244 91z m143 -57 c47 -19 110 -89 125
-141 7 -22 12 -74 12 -116 l0 -76 -235 0 -235 0 0 76 c0 96 14 143 58 194 71
83 167 105 275 63z"/>
<path d="M574 591 c-66 -40 -92 -106 -69 -173 8 -24 15 -78 15 -121 0 -85 17
-139 48 -156 27 -14 127 -14 154 0 31 17 48 71 48 156 0 43 7 97 15 119 43
124 -100 242 -211 175z m146 -46 c11 -10 25 -35 31 -56 9 -30 9 -43 -5 -69
-11 -24 -16 -60 -16 -130 0 -61 -4 -100 -12 -108 -16 -16 -130 -16 -146 0 -8
8 -12 47 -12 108 0 69 -5 106 -16 129 -24 48 1 121 49 141 32 14 105 5 127
-15z"/>
</g>
</svg>
