<?xml version="1.0" standalone="no"?>
<!DOCTYPE svg PUBLIC "-//W3C//DTD SVG 20010904//EN"
 "http://www.w3.org/TR/2001/REC-SVG-20010904/DTD/svg10.dtd">
<svg version="1.0" xmlns="http://www.w3.org/2000/svg"
 width="140.000000pt" height="123.000000pt" viewBox="0 0 140.000000 123.000000"
 preserveAspectRatio="xMidYMid meet">
<metadata>
Created by potrace 1.10, written by Peter Selinger 2001-2011
</metadata>
<g transform="translate(0.000000,123.000000) scale(0.100000,-0.100000)"
fill="#000000" stroke="none">
<path d="M640 953 c-39 -50 -3 -123 60 -123 63 0 99 73 60 123 -17 21 -30 27
-60 27 -30 0 -43 -6 -60 -27z m82 -20 c22 -20 23 -36 3 -53 -20 -16 -65 -4
-65 17 0 15 27 53 38 53 3 0 14 -7 24 -17z"/>
<path d="M510 900 c-39 -39 -14 -100 43 -100 53 0 76 61 37 100 -11 11 -29 20
-40 20 -11 0 -29 -9 -40 -20z m54 -29 c7 -11 -3 -41 -14 -41 -11 0 -21 30 -14
41 3 5 9 9 14 9 5 0 11 -4 14 -9z"/>
<path d="M810 900 c-40 -40 -16 -100 39 -100 33 0 61 27 61 58 0 28 -34 62
-60 62 -11 0 -29 -9 -40 -20z m55 -30 c10 -16 -16 -43 -28 -31 -11 11 -2 41
12 41 5 0 13 -5 16 -10z"/>
<path d="M390 860 c-23 -23 -24 -33 -10 -61 12 -22 59 -26 78 -7 17 17 15 54
-4 72 -21 21 -40 20 -64 -4z"/>
<path d="M946 864 c-19 -18 -21 -55 -4 -72 19 -19 66 -15 78 7 14 28 13 38
-10 61 -24 24 -43 25 -64 4z"/>
<path d="M635 775 c-14 -13 -25 -32 -25 -42 -1 -44 -1 -290 -1 -306 2 -54 100
-87 149 -49 33 26 38 55 32 227 -5 150 -6 158 -29 176 -34 28 -96 25 -126 -6z
m99 -26 l26 -20 0 -149 c0 -148 0 -149 -26 -169 -26 -21 -46 -19 -76 7 -16 13
-18 35 -18 166 l0 151 28 17 c34 22 34 22 66 -3z"/>
<path d="M497 752 c-26 -28 -25 -282 1 -304 24 -21 49 -28 69 -20 16 6 18 24
18 175 l0 167 -36 0 c-22 0 -42 -7 -52 -18z m47 -28 c23 -9 24 -225 0 -245
-26 -22 -34 7 -34 127 0 122 2 130 34 118z"/>
<path d="M815 603 c0 -151 2 -169 18 -175 20 -8 45 -1 70 20 15 13 17 34 17
152 0 154 -7 170 -71 170 l-34 0 0 -167z m69 112 c8 -22 9 -186 1 -217 -4 -16
-13 -28 -21 -28 -11 0 -14 25 -14 123 0 68 3 127 7 130 10 11 20 8 27 -8z"/>
<path d="M393 750 c-30 -12 -34 -36 -31 -154 3 -92 5 -100 28 -117 14 -11 34
-16 45 -13 19 5 20 13 20 142 0 155 -4 165 -62 142z m37 -135 c0 -98 -7 -124
-26 -93 -11 18 -13 160 -2 181 20 38 28 13 28 -88z"/>
<path d="M955 753 c-6 -5 -10 -65 -10 -145 0 -129 1 -137 20 -142 11 -3 31 2
45 13 24 17 25 24 28 127 2 77 -1 114 -10 126 -15 20 -58 32 -73 21z m54 -142
c-1 -73 -12 -107 -30 -95 -11 6 -12 187 -2 198 18 18 33 -31 32 -103z"/>
<path d="M0 94 c0 -8 13 -29 30 -47 25 -27 38 -32 82 -35 29 -1 79 -4 111 -6
56 -3 59 -2 84 30 l25 34 333 0 333 0 6 -25 c6 -25 7 -25 134 -26 229 -1 251
2 237 38 -2 7 2 13 10 13 8 0 15 9 15 20 0 20 -7 20 -700 20 -626 0 -700 -2
-700 -16z m75 -29 c11 0 20 -7 20 -15 0 -9 -9 -15 -25 -15 -19 0 -26 6 -28 25
-2 14 1 21 5 15 4 -5 17 -10 28 -10z m179 2 c8 9 56 10 56 2 0 -5 -5 -9 -11
-9 -6 0 -9 -6 -6 -14 9 -22 -130 -19 -144 3 -9 14 -10 14 -5 -1 4 -14 0 -18
-18 -18 -17 0 -23 5 -22 18 1 20 62 31 113 21 18 -4 34 -5 37 -2z m903 -21
c-5 -15 -139 -15 -144 1 -3 8 18 11 72 11 52 0 75 -4 72 -12z m201 -1 c1 -6
-38 -10 -97 -12 -77 -1 -99 2 -95 11 6 16 188 17 192 1z"/>
</g>
</svg>
