<?xml version="1.0" standalone="no"?>
<!DOCTYPE svg PUBLIC "-//W3C//DTD SVG 20010904//EN"
 "http://www.w3.org/TR/2001/REC-SVG-20010904/DTD/svg10.dtd">
<svg version="1.0" xmlns="http://www.w3.org/2000/svg"
 width="225.000000pt" height="225.000000pt" viewBox="0 0 225.000000 225.000000"
 preserveAspectRatio="xMidYMid meet">
<metadata>
Created by potrace 1.10, written by Peter Selinger 2001-2011
</metadata>
<g transform="translate(0.000000,225.000000) scale(0.100000,-0.100000)"
fill="#000000" stroke="none">
<path d="M874 2129 c-41 -12 -91 -69 -99 -112 -4 -18 -5 -101 -3 -184 3 -135
5 -155 24 -179 36 -48 68 -65 132 -71 52 -5 62 -9 62 -24 0 -18 10 -19 135
-19 125 0 135 1 135 19 0 15 10 19 62 24 64 6 97 23 132 71 19 25 21 41 21
206 0 196 -2 205 -69 254 -26 20 -42 21 -264 23 -130 1 -251 -2 -268 -8z m489
-40 c67 -18 77 -48 77 -227 0 -173 -7 -199 -64 -226 -19 -9 -49 -16 -68 -16
-21 0 -47 -10 -68 -25 -30 -22 -44 -25 -115 -25 -71 0 -85 3 -115 25 -20 15
-47 25 -67 25 -51 0 -100 25 -117 59 -13 23 -16 63 -16 181 0 240 -1 239 305
240 118 0 227 -5 248 -11z"/>
<path d="M891 2037 c-59 -15 -71 -46 -71 -179 0 -119 0 -120 29 -149 l29 -29
247 0 247 0 29 29 c29 29 29 30 29 150 0 118 -1 121 -27 151 l-28 31 -227 2
c-126 1 -241 -1 -257 -6z m480 -37 c17 -10 19 -22 19 -140 0 -118 -2 -130 -19
-140 -12 -6 -109 -10 -246 -10 -137 0 -234 4 -246 10 -17 10 -19 22 -19 140 0
112 2 130 18 139 23 14 467 14 493 1z"/>
<path d="M957 1953 c-4 -3 -7 -19 -7 -35 0 -21 7 -32 25 -40 22 -10 29 -9 47
10 19 18 20 25 10 47 -8 18 -19 25 -40 25 -16 0 -32 -3 -35 -7z"/>
<path d="M1218 1935 c-10 -22 -9 -29 10 -47 18 -19 25 -20 47 -10 22 10 26 18
23 45 -3 28 -7 32 -35 35 -27 3 -35 -1 -45 -23z"/>
<path d="M1027 1834 c-21 -21 50 -74 99 -74 30 0 89 33 98 55 10 26 -14 27
-45 1 -38 -33 -69 -33 -107 -1 -32 27 -35 28 -45 19z"/>
<path d="M787 1497 c-17 -17 -18 -38 -15 -307 3 -273 4 -290 24 -316 11 -15
33 -37 48 -48 26 -20 41 -21 281 -21 240 0 255 1 281 21 15 11 37 33 48 48 20
26 21 43 24 314 2 238 1 290 -11 307 -14 18 -29 19 -338 20 -301 0 -325 -1
-342 -18z m642 -31 c16 -19 11 -322 -6 -319 -8 2 -8 -5 0 -28 9 -22 9 -34 -1
-49 -10 -16 -10 -20 0 -18 19 4 22 -102 4 -146 -26 -63 -52 -69 -296 -70 -239
0 -276 8 -306 66 -19 37 -16 164 4 160 10 -2 10 2 2 18 -12 22 -5 60 11 60 6
0 7 -4 4 -10 -4 -6 1 -7 11 -3 13 5 16 3 11 -10 -4 -11 1 -20 13 -27 26 -14
25 -28 -2 -33 -13 -2 84 -4 214 -5 131 -1 244 1 253 4 8 3 15 15 15 26 0 10 4
17 9 14 5 -4 12 0 14 6 3 7 6 4 6 -7 1 -12 -5 -27 -11 -34 -11 -10 -10 -11 5
-6 20 8 24 65 5 66 -9 0 -9 2 1 6 11 5 11 7 0 14 -8 5 -9 9 -4 9 14 0 8 207
-7 236 -18 39 -50 44 -253 44 -203 0 -235 -5 -253 -44 -14 -29 -22 -236 -9
-236 6 0 8 -2 5 -5 -3 -3 -17 -1 -32 4 l-26 11 0 148 c0 102 4 152 12 160 19
19 591 17 607 -2z m-71 -215 c2 -90 -1 -138 -9 -147 -15 -19 -428 -21 -447 -2
-13 13 -18 269 -5 282 4 3 108 5 232 4 l226 -3 3 -134z"/>
<path d="M703 1433 c-51 -34 -87 -80 -119 -151 -13 -29 -24 -55 -24 -57 0 -3
22 -5 48 -5 46 0 49 2 65 38 9 21 30 52 47 69 28 28 31 37 28 83 l-3 51 -42
-28z m-35 -108 c-17 -25 -34 -43 -36 -40 -7 6 48 85 59 85 5 0 -6 -20 -23 -45z"/>
<path d="M1500 1408 c1 -45 5 -57 30 -82 17 -16 38 -47 47 -68 16 -36 19 -38
65 -38 26 0 48 3 48 6 0 3 -13 34 -30 68 -31 67 -83 127 -130 151 l-30 16 0
-53z m88 -65 c20 -29 40 -75 25 -58 -31 36 -62 85 -54 85 5 0 18 -12 29 -27z"/>
<path d="M507 1193 c-4 -3 -7 -51 -7 -105 l0 -98 90 0 90 0 0 105 0 105 -83 0
c-46 0 -87 -3 -90 -7z m133 -98 c0 -61 -2 -65 -25 -71 -14 -3 -36 -3 -50 0
-23 6 -25 11 -25 65 0 32 3 61 7 64 3 4 26 7 50 7 l43 0 0 -65z"/>
<path d="M1570 1095 l0 -105 90 0 91 0 -3 103 -3 102 -87 3 -88 3 0 -106z
m138 -2 c3 -60 2 -63 -23 -69 -14 -3 -36 -3 -50 0 -23 6 -25 10 -25 72 l0 65
48 -3 47 -3 3 -62z"/>
<path d="M487 963 c-4 -3 -7 -21 -7 -40 l0 -33 110 0 110 0 0 40 0 40 -103 0
c-57 0 -107 -3 -110 -7z"/>
<path d="M1550 930 l0 -40 111 0 110 0 -3 38 -3 37 -107 3 -108 3 0 -41z"/>
<path d="M500 853 c1 -10 6 -28 14 -41 10 -19 15 -21 23 -10 17 20 4 68 -18
68 -12 0 -19 -7 -19 -17z"/>
<path d="M643 843 c-10 -20 -10 -30 -1 -41 10 -12 14 -11 25 4 17 23 17 64 1
64 -7 0 -19 -12 -25 -27z"/>
<path d="M1570 847 c0 -13 6 -31 13 -41 11 -15 15 -16 25 -4 9 11 9 21 -1 41
-15 33 -37 35 -37 4z"/>
<path d="M1707 843 c-3 -16 0 -34 6 -41 8 -11 13 -9 23 10 19 34 17 58 -5 58
-12 0 -20 -9 -24 -27z"/>
<path d="M900 621 l0 -159 65 -4 65 -3 0 163 0 162 -65 0 -65 0 0 -159z m90 0
c0 -66 -4 -122 -9 -125 -5 -4 -16 -3 -25 0 -13 5 -16 25 -16 118 0 62 3 116 7
119 3 4 15 7 25 7 16 0 18 -10 18 -119z"/>
<path d="M1220 618 l0 -163 65 3 65 4 0 159 0 159 -65 0 -65 0 0 -162z m84
106 c3 -9 6 -60 6 -114 0 -73 -4 -101 -15 -110 -28 -23 -35 0 -35 121 0 110 1
119 19 119 10 0 22 -7 25 -16z"/>
<path d="M878 335 c-2 -52 -2 -95 -2 -95 1 0 15 7 30 15 37 19 87 19 125 0
l30 -16 -3 93 -3 93 -87 3 -87 3 -3 -96z m130 56 c8 -5 12 -23 10 -47 -3 -39
-3 -39 -50 -42 -44 -3 -48 -1 -54 23 -11 43 10 75 48 75 18 0 39 -4 46 -9z"/>
<path d="M1197 423 c-4 -3 -7 -46 -7 -95 l0 -89 30 16 c37 19 87 19 124 0 15
-8 29 -15 30 -15 0 0 0 43 -2 95 l-3 95 -83 0 c-45 0 -86 -3 -89 -7z m133 -43
c6 -12 10 -33 8 -48 -3 -25 -6 -27 -53 -27 l-50 0 -3 39 c-4 44 7 56 55 56 22
0 36 -6 43 -20z"/>
<path d="M939 240 c-59 -17 -83 -42 -103 -107 l-7 -23 137 0 137 0 -7 32 c-14
68 -92 117 -157 98z m87 -51 c8 -6 14 -18 14 -25 0 -11 -17 -14 -69 -14 -39 0
-72 4 -76 9 -3 5 7 19 22 31 30 23 81 23 109 -1z"/>
<path d="M1245 239 c-40 -11 -83 -57 -91 -97 l-6 -32 136 0 136 0 -6 28 c-20
78 -93 122 -169 101z m89 -50 c14 -11 24 -25 21 -30 -4 -5 -37 -9 -76 -9 -75
0 -90 14 -47 44 31 22 70 20 102 -5z"/>
</g>
</svg>
